PathFileType	4	(X/Y/Z)	60_2_12_p0_0-415.trc
DataRate	CameraRate	NumFrames	NumMarkers	Units	OrigDataRate	OrigDataStartFrame	OrigNumFrames
60.0	60.0	6	27	m	60.0	156	416
Frame#	Time	RHip			RKnee			RAnkle			RBigToe			RSmallToe			RHeel			LHip			LKnee			LAnkle			LBigToe			LSmallToe			LHeel			Neck			Head			Nose			RShoulder			RElbow			RWrist			RThumb			RIndex			RPinky			LShoulder			LElbow			LWrist			LThumb			LIndex			LPinky			
		X1	Y1	Z1	X2	Y2	Z2	X3	Y3	Z3	X4	Y4	Z4	X5	Y5	Z5	X6	Y6	Z6	X7	Y7	Z7	X8	Y8	Z8	X9	Y9	Z9	X10	Y10	Z10	X11	Y11	Z11	X12	Y12	Z12	X13	Y13	Z13	X14	Y14	Z14	X15	Y15	Z15	X16	Y16	Z16	X17	Y17	Z17	X18	Y18	Z18	X19	Y19	Z19	X20	Y20	Z20	X21	Y21	Z21	X22	Y22	Z22	X23	Y23	Z23	X24	Y24	Z24	X25	Y25	Z25	X26	Y26	Z26	X27	Y27	Z27	
156	2.6	0.33699202384357113	0.46913206832096876	-0.1715673523160933	0.3292964550332495	0.6332472551580486	0.23680108578687126	0.317462258751682	0.7702149831676639	0.6053149895684938	0.29148107418890173	0.6383805324412404	0.6905294747513998	0.3604941993479487	0.640452442803876	0.6722379505957852	0.2772489579997152	0.8903538041784954	0.6650088674643476	0.10629943775211724	0.46616424671935847	-0.1872261696017358	0.09924437689103406	0.6602830693557732	0.2268143330091619	0.09034572407048291	0.7984950000805067	0.5861356479908676	0.10858732100075719	0.6361225066882777	0.6730895164389934	0.054971627835996045	0.675783790058458	0.6668698865560326	0.08700026782566692	0.8917819214714556	0.6298215410143139	0.2378152287363847	0.1500294050531759	-0.6491657771942202	0.2507299508528329	-0.005958288065226027	-0.8529179551374323	0.2574685701324563	-0.003913910306096913	-0.7229621910120031	0.4147063459021219	0.18106727993493668	-0.5978349201564999	0.4568436715104423	0.3257520373684368	-0.3679231484886248	0.46697055957021216	0.43151240061448265	-0.12128425201974513	0.3976354726811984	0.4724912733719424	0.024964884478305856	0.42199553139376855	0.4830588841189835	0.043571744276921114	0.46714034438989516	0.5116715131593654	0.030472709274414134	0.07296620331319814	0.20250116370184384	-0.6021069585027301	0.03113818983343937	0.3190303579837415	-0.3843130726207166	-0.0014501838638049014	0.4556751029318095	-0.1627325718793695	0.010466494707644911	0.49221963772934857	-0.05863345470534711	-0.0037759427742849096	0.5332855834191585	-0.030845554729816163	-0.017121651076614897	0.5224843570861238	-0.04518736071112068
157	2.6166666666666667	0.33686373738833936	0.46951741112302875	-0.17158165537496842	0.329314732488864	0.6330060938625103	0.2367015447139532	0.31743511141787917	0.7698029214961074	0.6051733964900707	0.2914436588086072	0.6382948140076794	0.6906582764476359	0.3604763498661352	0.6400337439969344	0.6722459985235532	0.28086107450227304	0.8732479414612778	0.6661411708862767	0.11113545828789115	0.4521683091727946	-0.18673589451149616	0.09935774732138793	0.6602332829307027	0.22681078203669852	0.09032251353070443	0.7983755431836959	0.5860537127850028	0.10854188408070484	0.6362208978885102	0.6733650832490663	0.05487534061044466	0.6757873139877999	0.6671197228272117	0.08698242495472738	0.8915183522757789	0.6296530730312035	0.2348314921288495	0.1373541638178542	-0.6500914621762237	0.2506108363755978	-0.007209510236968616	-0.8561636607025913	0.25742457963924126	-0.0036890162136005663	-0.7230770933751954	0.4147118002398428	0.18102505780264289	-0.5979639706413316	0.4568416902735533	0.3256876449520812	-0.3679501714909322	0.4666275511373345	0.40465716378561567	-0.12015819869426686	0.39778529453609096	0.47192160555697477	0.02478883563071288	0.4254904939505869	0.46644654883043085	0.04280754262945239	0.47294706950279625	0.4793412447073532	0.02950423402960701	0.07744311253002086	0.19097457470061446	-0.5999048553116619	0.026410995519001352	0.3312465820924529	-0.3856612800269585	-0.00401341430842792	0.4436549409541095	-0.15452425952364607	0.01890006591517451	0.49324414477110795	-0.0525441233471674	-0.007314165146236769	0.5331710499616519	-0.023100392817788758	-0.016874625001462855	0.5242649172738382	-0.04120828387539384
158	2.6333333333333333	0.3363115197798294	0.46692714113465933	-0.17557204731051745	0.329359822791518	0.6330011841009806	0.23647226449041875	0.30895961952975437	0.7527741407776747	0.6022488059293604	0.2914759700846863	0.6385881227363654	0.6905393200004755	0.3605344930804483	0.6399939171520692	0.6721542861716115	0.2776598347576072	0.8553701510326037	0.6578625741452541	0.10580598997052912	0.4633031761021539	-0.19146416804749258	0.0992322812101302	0.6604274778882393	0.22693322493347215	0.08742302671243429	0.7824043696102224	0.5832675596885644	0.10936122308848648	0.6385659969976142	0.6779873520372526	0.05491922468072321	0.6754278496143338	0.6669110510020841	0.08685856679928108	0.8909650272619214	0.6296363760638946	0.23794882111407237	0.1485912702429549	-0.6527871463533775	0.2572386735859946	0.0030111407565002885	-0.8596770869894593	0.25750149449469517	-0.0038740857694462014	-0.7260348464282358	0.4114746461776446	0.19289759469926374	-0.6003335113940313	0.45729341701530635	0.3271298896074313	-0.36484847512128604	0.4668961648138809	0.40514931628512363	-0.12048401085685598	0.3980322785964028	0.47284689587685386	0.028667452694598524	0.417610081769643	0.4660423574914477	0.043537191975943954	0.46629565446629856	0.4823596923440578	0.029900861889285837	0.07306470738304059	0.2025974517001226	-0.602411997168912	0.02625756143857483	0.33147358999795357	-0.38573363310466563	-0.0035515368032148784	0.4455326309291489	-0.15073116689084537	0.014840092938859727	0.5056759212101819	-0.058080080757234386	-0.007463906304712402	0.5338088337311953	-0.022676519092557954	-0.011536727844586614	0.5117319355514388	-0.03777068861451755
159	2.65	0.33619058448183203	0.46710984854560167	-0.17559102673234894	0.32848405991827484	0.6304139468789833	0.23255240671329644	0.31345681218666027	0.7687233706328261	0.608989901259627	0.29138261936112636	0.6383634534350562	0.6906988357327578	0.3642937123142659	0.6234616405316229	0.6687535094085357	0.2819579858836706	0.8717823026036564	0.6612692740408862	0.10277769276712816	0.44984148016958914	-0.19081943162546608	0.0992652393437422	0.6604963909359807	0.22692860211814625	0.09030336580877289	0.798541367809952	0.5863301860386393	0.11426764961247925	0.6234723199029899	0.6749252687654178	0.05483562980453893	0.675742431986508	0.6673491736478381	0.08683826797547747	0.8921485362233782	0.6301549118913043	0.23803015324440918	0.1489004485581745	-0.6528823366291525	0.2536253136342758	0.0024706239984714534	-0.859495790056464	0.2575400420696921	-0.004015795900181126	-0.7289672068170169	0.41137378855321877	0.1918450414635746	-0.6036191238749005	0.45722067250585585	0.32707522413931156	-0.3649623800350044	0.4663607727512325	0.4030761882595711	-0.1238323035353833	0.39740584616746066	0.47042407918758006	0.02473428065709063	0.4209991209832934	0.4517060740658077	0.04294724661461445	0.46627981833579546	0.4826633621189918	0.029768647224660612	0.07304817354324299	0.202802605584594	-0.6025030010175068	0.02628218047618651	0.3311928297249169	-0.3856703955511289	-0.003840866584544798	0.44751095994002565	-0.14297242846440722	0.02271549506829949	0.4704811219492588	-0.04258658360576707	-0.006893132939959109	0.5350309349419583	-0.01912665881903035	-0.01867149680714417	0.5159024105168641	-0.029599929841545077
160	2.6666666666666665	0.33602148323498177	0.4661439184986449	-0.17962765120386143	0.328516017363117	0.6301347425893111	0.23246072939511617	0.3091887208626669	0.752983503274034	0.606064982981911	0.29254106576812133	0.6413911073541343	0.6956360290983308	0.360536245209063	0.6403497087266269	0.6721400356362505	0.27720639810311615	0.8903798776674411	0.6650619521223563	0.10267838157906393	0.4498443180089315	-0.19092697685554627	0.0993469961574695	0.6604643644523148	0.22682092513337984	0.08504519758359315	0.815342790069699	0.5894474734558985	0.11432679583286355	0.6233990592096812	0.6749849461634	0.05484627282396159	0.6756146559095266	0.6674064155041459	0.08669405975111841	0.8922077535749285	0.6302113775491295	0.23813948141125546	0.14946493634259267	-0.6530385577623032	0.2571758293093037	0.0020920189676036996	-0.8628334433145763	0.2575297269527286	-0.0038528171586940845	-0.7289436874710755	0.4114469154575118	0.1918928189110535	-0.6039096223170406	0.4572077625341728	0.3269275103910973	-0.3648888615433826	0.46597689237062545	0.40421496845499716	-0.11604796368830422	0.389264129186651	0.4572009357627865	0.024767912949390767	0.42047064077895935	0.45074209154675765	0.04341243926331403	0.470598433405486	0.48203589449220346	0.02677960455816928	0.07536224471923222	0.2147071123808726	-0.6048522221880026	0.02620811717110891	0.3313786888309875	-0.3855823065106966	-0.0075593749920417645	0.44776867078752514	-0.13861261961073176	0.03307580287346473	0.4474673762243122	-0.030510876728807357	-0.004202243681776356	0.5069924076208205	-0.015088039641698145	-0.020234156238832613	0.5072043702167712	-0.023384582663948685
161	2.683333333333333	0.3354923704868507	0.4641248930035578	-0.1834674602201624	0.328620809306989	0.6303078655769738	0.23255695662369902	0.3177015949630384	0.7699516494877362	0.6092037112650394	0.29252954713130735	0.6410344995630153	0.695853838638281	0.3645063851763858	0.6233411853697626	0.6723950257750949	0.28193351488438123	0.8719068326065644	0.6614853949148006	0.0984436526111405	0.4474432023362866	-0.19475153581963922	0.09923762855480725	0.6607288387860961	0.22689055549167142	0.0892166018943219	0.799987628519915	0.5909848191352999	0.11427775778931028	0.6236623878618217	0.6752503614127433	0.054839782043189234	0.6758133285761109	0.6675157997560578	0.08662244160208739	0.8914525294728226	0.6303522038924398	0.2383654317225039	0.1494598191708945	-0.6560751773518139	0.2571599379566787	0.0021697236887178394	-0.8629088852754303	0.25400489554780153	0.006499602683657851	-0.7316671204784713	0.4114874562034317	0.19184911574943048	-0.6041373255306339	0.4569930934614823	0.325820898605115	-0.36881700078631235	0.4670492613778564	0.4046638009823537	-0.11648780860298845	0.3932762034040207	0.4446016764894482	0.028232985990837994	0.4154652061727904	0.44843271937321016	0.04430173765610044	0.46737243082774377	0.4705368177244378	0.02985711426023169	0.07552969893454987	0.21446314868321895	-0.6078746487361084	0.026084251540043228	0.3312761353989141	-0.3856293406653376	0.0005204821676685232	0.40739217584264015	-0.13332247168606162	0.03844947271843038	0.43468132613829213	-0.026542311415768405	0.005806189768505854	0.47792345777252304	-0.01459400214244167	-0.020334554805164183	0.4658669493675563	-0.02268242701306026
